<svg xmlns="http://www.w3.org/2000/svg" viewBox="0 0 32 32">
  <rect width="32" height="32" rx="7" fill="#6b8e6e"/>
  <!-- Leaf body -->
  <path d="M16 4 C23 4 27 10 27 16 C27 23 22 28 16 28 C10 28 5 23 5 16 C5 10 9 4 16 4 Z"
        fill="rgba(255,255,255,0.92)"/>
  <!-- Pointed top -->
  <path d="M16 4 C15 2 16 1 16 1 C16 1 17 2 16 4 Z" fill="rgba(255,255,255,0.92)"/>
  <!-- Center vein -->
  <line x1="16" y1="5" x2="16" y2="27" stroke="#6b8e6e" stroke-width="0.9" stroke-linecap="round" opacity="0.6"/>
  <!-- Left veins -->
  <path d="M16 13 C13 12 10.5 10 10 8.5" stroke="#6b8e6e" stroke-width="0.65" fill="none" stroke-linecap="round" opacity="0.55"/>
  <path d="M16 18 C13 17 10 15.5 9.5 14" stroke="#6b8e6e" stroke-width="0.65" fill="none" stroke-linecap="round" opacity="0.45"/>
  <path d="M16 23 C13.5 22 11.5 20.5 11 19" stroke="#6b8e6e" stroke-width="0.65" fill="none" stroke-linecap="round" opacity="0.35"/>
  <!-- Right veins -->
  <path d="M16 13 C19 12 21.5 10 22 8.5" stroke="#6b8e6e" stroke-width="0.65" fill="none" stroke-linecap="round" opacity="0.55"/>
  <path d="M16 18 C19 17 22 15.5 22.5 14" stroke="#6b8e6e" stroke-width="0.65" fill="none" stroke-linecap="round" opacity="0.45"/>
  <path d="M16 23 C18.5 22 20.5 20.5 21 19" stroke="#6b8e6e" stroke-width="0.65" fill="none" stroke-linecap="round" opacity="0.35"/>
</svg>
